<svg width="548" height="154" viewBox="0 0 548 154" fill="none" xmlns="http://www.w3.org/2000/svg">
<path d="M64.6885 78.9502C64.0798 87.3649 60.9645 93.9893 55.3428 98.8232C49.7568 103.657 42.3805 106.074 33.2139 106.074C23.1878 106.074 15.2923 102.708 9.52734 95.9766C3.79818 89.209 0.933594 79.9349 0.933594 68.1543V63.374C0.933594 55.8545 2.25846 49.2301 4.9082 43.501C7.55794 37.7718 11.3356 33.3854 16.2412 30.3418C21.1826 27.2624 26.9118 25.7227 33.4287 25.7227C42.4521 25.7227 49.721 28.1396 55.2354 32.9736C60.7497 37.8076 63.9365 44.5931 64.7959 53.3301H48.6826C48.2887 48.2812 46.8743 44.6289 44.4395 42.373C42.0404 40.0814 38.3701 38.9355 33.4287 38.9355C28.0576 38.9355 24.0293 40.8691 21.3438 44.7363C18.694 48.5677 17.3333 54.5296 17.2617 62.6221V68.5303C17.2617 76.9808 18.5329 83.1576 21.0752 87.0605C23.6533 90.9635 27.6995 92.915 33.2139 92.915C38.1911 92.915 41.8971 91.7871 44.332 89.5312C46.8027 87.2396 48.2171 83.7126 48.5752 78.9502H64.6885ZM71.832 75.4053C71.832 69.6403 72.9421 64.502 75.1621 59.9902C77.3822 55.4785 80.569 51.9873 84.7227 49.5166C88.9121 47.0459 93.764 45.8105 99.2783 45.8105C107.12 45.8105 113.512 48.2096 118.453 53.0078C123.43 57.806 126.205 64.3229 126.778 72.5586L126.886 76.5332C126.886 85.4492 124.397 92.6107 119.42 98.0176C114.443 103.389 107.765 106.074 99.3857 106.074C91.0068 106.074 84.3109 103.389 79.2979 98.0176C74.3206 92.6465 71.832 85.3418 71.832 76.1035V75.4053ZM87.3545 76.5332C87.3545 82.0475 88.3929 86.2728 90.4697 89.209C92.5465 92.1094 95.5186 93.5596 99.3857 93.5596C103.146 93.5596 106.082 92.1273 108.194 89.2627C110.307 86.3623 111.363 81.7432 111.363 75.4053C111.363 69.9984 110.307 65.8089 108.194 62.8369C106.082 59.8649 103.11 58.3789 99.2783 58.3789C95.4827 58.3789 92.5465 59.8649 90.4697 62.8369C88.3929 65.7731 87.3545 70.3385 87.3545 76.5332ZM150.733 46.8848L151.217 53.5986C155.37 48.4066 160.938 45.8105 167.921 45.8105C174.08 45.8105 178.663 47.6188 181.671 51.2354C184.679 54.8519 186.218 60.2588 186.29 67.4561V105H170.768V67.832C170.768 64.5378 170.051 62.1566 168.619 60.6885C167.187 59.1846 164.806 58.4326 161.476 58.4326C157.107 58.4326 153.831 60.2946 151.646 64.0186V105H136.124V46.8848H150.733ZM195.689 75.4053C195.689 69.6403 196.799 64.502 199.02 59.9902C201.24 55.4785 204.426 51.9873 208.58 49.5166C212.77 47.0459 217.621 45.8105 223.136 45.8105C230.978 45.8105 237.369 48.2096 242.311 53.0078C247.288 57.806 250.063 64.3229 250.636 72.5586L250.743 76.5332C250.743 85.4492 248.255 92.6107 243.277 98.0176C238.3 103.389 231.622 106.074 223.243 106.074C214.864 106.074 208.168 103.389 203.155 98.0176C198.178 92.6465 195.689 85.3418 195.689 76.1035V75.4053ZM211.212 76.5332C211.212 82.0475 212.25 86.2728 214.327 89.209C216.404 92.1094 219.376 93.5596 223.243 93.5596C227.003 93.5596 229.939 92.1273 232.052 89.2627C234.164 86.3623 235.221 81.7432 235.221 75.4053C235.221 69.9984 234.164 65.8089 232.052 62.8369C229.939 59.8649 226.967 58.3789 223.136 58.3789C219.34 58.3789 216.404 59.8649 214.327 62.8369C212.25 65.7731 211.212 70.3385 211.212 76.5332ZM226.197 22.5H243.116L228.238 39.1504H215.616L226.197 22.5ZM284.474 93.5596C287.338 93.5596 289.666 92.7718 291.456 91.1963C293.246 89.6208 294.177 87.526 294.249 84.9121H308.805C308.769 88.8509 307.695 92.4674 305.582 95.7617C303.469 99.0202 300.569 101.562 296.881 103.389C293.229 105.179 289.182 106.074 284.742 106.074C276.435 106.074 269.882 103.442 265.084 98.1787C260.286 92.8792 257.887 85.5745 257.887 76.2646V75.2441C257.887 66.2923 260.268 59.1488 265.03 53.8135C269.793 48.4782 276.327 45.8105 284.635 45.8105C291.904 45.8105 297.722 47.8874 302.091 52.041C306.495 56.1589 308.733 61.6553 308.805 68.5303H294.249C294.177 65.5225 293.246 63.0876 291.456 61.2256C289.666 59.3278 287.302 58.3789 284.366 58.3789C280.75 58.3789 278.01 59.7038 276.148 62.3535C274.322 64.9674 273.409 69.2285 273.409 75.1367V76.748C273.409 82.7279 274.322 87.0247 276.148 89.6387C277.975 92.2526 280.75 93.5596 284.474 93.5596ZM344.415 106.074C335.893 106.074 328.946 103.46 323.575 98.2324C318.24 93.0046 315.572 86.04 315.572 77.3389V75.835C315.572 69.9984 316.7 64.7884 318.956 60.2051C321.212 55.5859 324.399 52.041 328.517 49.5703C332.67 47.0638 337.397 45.8105 342.696 45.8105C350.646 45.8105 356.894 48.3171 361.441 53.3301C366.025 58.3431 368.316 65.4508 368.316 74.6533V80.9912H331.31C331.811 84.7868 333.315 87.8304 335.821 90.1221C338.364 92.4137 341.568 93.5596 345.436 93.5596C351.415 93.5596 356.088 91.3932 359.454 87.0605L367.081 95.6006C364.754 98.8949 361.603 101.473 357.628 103.335C353.653 105.161 349.249 106.074 344.415 106.074ZM342.643 58.3789C339.563 58.3789 337.057 59.4173 335.123 61.4941C333.225 63.571 332.008 66.543 331.471 70.4102H353.062V69.1748C352.991 65.7373 352.06 63.0876 350.27 61.2256C348.479 59.3278 345.937 58.3789 342.643 58.3789ZM391.466 46.8848L391.949 53.5986C396.103 48.4066 401.671 45.8105 408.653 45.8105C414.812 45.8105 419.396 47.6188 422.403 51.2354C425.411 54.8519 426.951 60.2588 427.022 67.4561V105H411.5V67.832C411.5 64.5378 410.784 62.1566 409.352 60.6885C407.919 59.1846 405.538 58.4326 402.208 58.4326C397.84 58.4326 394.563 60.2946 392.379 64.0186V105H376.856V46.8848H391.466ZM436.422 75.4053C436.422 69.6403 437.532 64.502 439.752 59.9902C441.972 55.4785 445.159 51.9873 449.312 49.5166C453.502 47.0459 458.354 45.8105 463.868 45.8105C471.71 45.8105 478.102 48.2096 483.043 53.0078C488.02 57.806 490.795 64.3229 491.368 72.5586L491.476 76.5332C491.476 85.4492 488.987 92.6107 484.01 98.0176C479.033 103.389 472.354 106.074 463.976 106.074C455.597 106.074 448.901 103.389 443.888 98.0176C438.91 92.6465 436.422 85.3418 436.422 76.1035V75.4053ZM451.944 76.5332C451.944 82.0475 452.983 86.2728 455.06 89.209C457.136 92.1094 460.108 93.5596 463.976 93.5596C467.735 93.5596 470.672 92.1273 472.784 89.2627C474.897 86.3623 475.953 81.7432 475.953 75.4053C475.953 69.9984 474.897 65.8089 472.784 62.8369C470.672 59.8649 467.7 58.3789 463.868 58.3789C460.073 58.3789 457.136 59.8649 455.06 62.8369C452.983 65.7731 451.944 70.3385 451.944 76.5332ZM532.511 88.9404C532.511 87.0426 531.562 85.5566 529.664 84.4824C527.802 83.3724 524.794 82.3877 520.641 81.5283C506.819 78.6279 499.908 72.7555 499.908 63.9111C499.908 58.7549 502.039 54.458 506.3 51.0205C510.597 47.5472 516.201 45.8105 523.111 45.8105C530.488 45.8105 536.378 47.5472 540.782 51.0205C545.222 54.4938 547.442 59.0055 547.442 64.5557H531.92C531.92 62.3356 531.204 60.5094 529.771 59.0771C528.339 57.609 526.101 56.875 523.058 56.875C520.444 56.875 518.421 57.4658 516.988 58.6475C515.556 59.8291 514.84 61.333 514.84 63.1592C514.84 64.8779 515.646 66.2744 517.257 67.3486C518.904 68.387 521.661 69.3001 525.528 70.0879C529.396 70.8398 532.654 71.6992 535.304 72.666C543.504 75.6738 547.604 80.8838 547.604 88.2959C547.604 93.5954 545.33 97.8923 540.782 101.187C536.235 104.445 530.362 106.074 523.165 106.074C518.295 106.074 513.963 105.215 510.167 103.496C506.407 101.742 503.453 99.3604 501.305 96.3525C499.156 93.3089 498.082 90.0326 498.082 86.5234H512.799C512.942 89.2806 513.963 91.3932 515.86 92.8613C517.758 94.3294 520.3 95.0635 523.487 95.0635C526.459 95.0635 528.697 94.5085 530.201 93.3984C531.741 92.2526 532.511 90.7666 532.511 88.9404Z" fill="white"/>
<line x1="275.5" y1="1.5" x2="540.5" y2="1.5" stroke="white" stroke-width="3" stroke-linecap="round" stroke-linejoin="round"/>
<line x1="7.5" y1="152.5" x2="272.5" y2="152.5" stroke="white" stroke-width="3" stroke-linecap="round" stroke-linejoin="round"/>
</svg>
