<svg width="513" height="48" viewBox="0 0 513 48" fill="none" xmlns="http://www.w3.org/2000/svg">
<path d="M34.3281 32.4648C33.8008 36.9766 32.1309 40.4629 29.3184 42.9238C26.5254 45.3652 22.8047 46.5859 18.1562 46.5859C13.1172 46.5859 9.07422 44.7793 6.02734 41.166C3 37.5527 1.48633 32.7188 1.48633 26.6641V22.5625C1.48633 18.5977 2.18945 15.1113 3.5957 12.1035C5.02148 9.0957 7.0332 6.79102 9.63086 5.18945C12.2285 3.56836 15.2363 2.75781 18.6543 2.75781C23.1855 2.75781 26.8184 4.02734 29.5527 6.56641C32.2871 9.08594 33.8789 12.582 34.3281 17.0547H28.6738C28.1855 13.6562 27.1211 11.1953 25.4805 9.67188C23.8594 8.14844 21.584 7.38672 18.6543 7.38672C15.0605 7.38672 12.2383 8.71484 10.1875 11.3711C8.15625 14.0273 7.14062 17.8066 7.14062 22.709V26.8398C7.14062 31.4688 8.10742 35.1504 10.041 37.8848C11.9746 40.6191 14.6797 41.9863 18.1562 41.9863C21.2812 41.9863 23.6738 41.2832 25.334 39.877C27.0137 38.4512 28.127 35.9805 28.6738 32.4648H34.3281ZM47.6582 29.3008V46H42.0332V3.34375H57.7656C62.4336 3.34375 66.0859 4.53516 68.7227 6.91797C71.3789 9.30078 72.707 12.4551 72.707 16.3809C72.707 20.5215 71.4082 23.7148 68.8105 25.9609C66.2324 28.1875 62.5312 29.3008 57.707 29.3008H47.6582ZM47.6582 24.7012H57.7656C60.7734 24.7012 63.0781 23.998 64.6797 22.5918C66.2812 21.166 67.082 19.1152 67.082 16.4395C67.082 13.9004 66.2812 11.8691 64.6797 10.3457C63.0781 8.82227 60.8809 8.03125 58.0879 7.97266H47.6582V24.7012ZM103.996 26.2832H85.5098V41.4004H106.984V46H79.8848V3.34375H106.691V7.97266H85.5098V21.6836H103.996V26.2832ZM120.021 46H114.396V3.34375H120.021V46ZM150.842 29.3008V46H145.217V3.34375H160.949C165.617 3.34375 169.27 4.53516 171.906 6.91797C174.562 9.30078 175.891 12.4551 175.891 16.3809C175.891 20.5215 174.592 23.7148 171.994 25.9609C169.416 28.1875 165.715 29.3008 160.891 29.3008H150.842ZM150.842 24.7012H160.949C163.957 24.7012 166.262 23.998 167.863 22.5918C169.465 21.166 170.266 19.1152 170.266 16.4395C170.266 13.9004 169.465 11.8691 167.863 10.3457C166.262 8.82227 164.064 8.03125 161.271 7.97266H150.842V24.7012ZM201.789 42.8652C199.68 45.3457 196.584 46.5859 192.502 46.5859C189.123 46.5859 186.545 45.6094 184.768 43.6562C183.01 41.6836 182.121 38.7734 182.102 34.9258V14.3008H187.521V34.7793C187.521 39.584 189.475 41.9863 193.381 41.9863C197.521 41.9863 200.275 40.4434 201.643 37.3574V14.3008H207.062V46H201.906L201.789 42.8652ZM242.16 30.502C242.16 35.3457 241.047 39.2422 238.82 42.1914C236.594 45.1211 233.605 46.5859 229.855 46.5859C225.852 46.5859 222.756 45.1699 220.568 42.3379L220.305 46H215.324V1H220.744V17.7871C222.932 15.0723 225.949 13.7148 229.797 13.7148C233.645 13.7148 236.662 15.1699 238.85 18.0801C241.057 20.9902 242.16 24.9746 242.16 30.0332V30.502ZM236.74 29.8867C236.74 26.1953 236.027 23.3438 234.602 21.332C233.176 19.3203 231.125 18.3145 228.449 18.3145C224.875 18.3145 222.307 19.9746 220.744 23.2949V37.0059C222.404 40.3262 224.992 41.9863 228.508 41.9863C231.105 41.9863 233.127 40.9805 234.572 38.9688C236.018 36.957 236.74 33.9297 236.74 29.8867ZM254.904 46H249.484V1H254.904V46ZM269.494 46H264.074V14.3008H269.494V46ZM263.635 5.89258C263.635 5.01367 263.898 4.27148 264.426 3.66602C264.973 3.06055 265.773 2.75781 266.828 2.75781C267.883 2.75781 268.684 3.06055 269.23 3.66602C269.777 4.27148 270.051 5.01367 270.051 5.89258C270.051 6.77148 269.777 7.50391 269.23 8.08984C268.684 8.67578 267.883 8.96875 266.828 8.96875C265.773 8.96875 264.973 8.67578 264.426 8.08984C263.898 7.50391 263.635 6.77148 263.635 5.89258ZM290.91 42.1621C292.844 42.1621 294.533 41.5762 295.979 40.4043C297.424 39.2324 298.225 37.7676 298.381 36.0098H303.508C303.41 37.8262 302.785 39.5547 301.633 41.1953C300.48 42.8359 298.938 44.1445 297.004 45.1211C295.09 46.0977 293.059 46.5859 290.91 46.5859C286.594 46.5859 283.156 45.1504 280.598 42.2793C278.059 39.3887 276.789 35.4434 276.789 30.4434V29.5352C276.789 26.4492 277.355 23.7051 278.488 21.3027C279.621 18.9004 281.242 17.0352 283.352 15.707C285.48 14.3789 287.99 13.7148 290.881 13.7148C294.436 13.7148 297.385 14.7793 299.729 16.9082C302.092 19.0371 303.352 21.8008 303.508 25.1992H298.381C298.225 23.1484 297.443 21.4688 296.037 20.1602C294.65 18.832 292.932 18.168 290.881 18.168C288.127 18.168 285.988 19.1641 284.465 21.1562C282.961 23.1289 282.209 25.9902 282.209 29.7402V30.7656C282.209 34.418 282.961 37.2305 284.465 39.2031C285.969 41.1758 288.117 42.1621 290.91 42.1621ZM329.172 46C328.859 45.375 328.605 44.2617 328.41 42.6602C325.891 45.2773 322.883 46.5859 319.387 46.5859C316.262 46.5859 313.693 45.707 311.682 43.9492C309.689 42.1719 308.693 39.9258 308.693 37.2109C308.693 33.9102 309.943 31.3516 312.443 29.5352C314.963 27.6992 318.498 26.7812 323.049 26.7812H328.322V24.291C328.322 22.3965 327.756 20.8926 326.623 19.7793C325.49 18.6465 323.82 18.0801 321.613 18.0801C319.68 18.0801 318.059 18.5684 316.75 19.5449C315.441 20.5215 314.787 21.7031 314.787 23.0898H309.338C309.338 21.5078 309.895 19.9844 311.008 18.5195C312.141 17.0352 313.664 15.8633 315.578 15.0039C317.512 14.1445 319.631 13.7148 321.936 13.7148C325.588 13.7148 328.449 14.6328 330.52 16.4688C332.59 18.2852 333.664 20.7949 333.742 23.998V38.5879C333.742 41.498 334.113 43.8125 334.855 45.5312V46H329.172ZM320.178 41.8691C321.877 41.8691 323.488 41.4297 325.012 40.5508C326.535 39.6719 327.639 38.5293 328.322 37.123V30.6191H324.074C317.434 30.6191 314.113 32.5625 314.113 36.4492C314.113 38.1484 314.68 39.4766 315.812 40.4336C316.945 41.3906 318.4 41.8691 320.178 41.8691ZM354.953 42.1621C356.887 42.1621 358.576 41.5762 360.021 40.4043C361.467 39.2324 362.268 37.7676 362.424 36.0098H367.551C367.453 37.8262 366.828 39.5547 365.676 41.1953C364.523 42.8359 362.98 44.1445 361.047 45.1211C359.133 46.0977 357.102 46.5859 354.953 46.5859C350.637 46.5859 347.199 45.1504 344.641 42.2793C342.102 39.3887 340.832 35.4434 340.832 30.4434V29.5352C340.832 26.4492 341.398 23.7051 342.531 21.3027C343.664 18.9004 345.285 17.0352 347.395 15.707C349.523 14.3789 352.033 13.7148 354.924 13.7148C358.479 13.7148 361.428 14.7793 363.771 16.9082C366.135 19.0371 367.395 21.8008 367.551 25.1992H362.424C362.268 23.1484 361.486 21.4688 360.08 20.1602C358.693 18.832 356.975 18.168 354.924 18.168C352.17 18.168 350.031 19.1641 348.508 21.1562C347.004 23.1289 346.252 25.9902 346.252 29.7402V30.7656C346.252 34.418 347.004 37.2305 348.508 39.2031C350.012 41.1758 352.16 42.1621 354.953 42.1621ZM379.533 46H374.113V14.3008H379.533V46ZM373.674 5.89258C373.674 5.01367 373.938 4.27148 374.465 3.66602C375.012 3.06055 375.812 2.75781 376.867 2.75781C377.922 2.75781 378.723 3.06055 379.27 3.66602C379.816 4.27148 380.09 5.01367 380.09 5.89258C380.09 6.77148 379.816 7.50391 379.27 8.08984C378.723 8.67578 377.922 8.96875 376.867 8.96875C375.812 8.96875 375.012 8.67578 374.465 8.08984C373.938 7.50391 373.674 6.77148 373.674 5.89258ZM386.799 29.8574C386.799 26.752 387.404 23.959 388.615 21.4785C389.846 18.998 391.545 17.084 393.713 15.7363C395.9 14.3887 398.391 13.7148 401.184 13.7148C405.5 13.7148 408.986 15.209 411.643 18.1973C414.318 21.1855 415.656 25.1602 415.656 30.1211V30.502C415.656 33.5879 415.061 36.3613 413.869 38.8223C412.697 41.2637 411.008 43.168 408.801 44.5352C406.613 45.9023 404.094 46.5859 401.242 46.5859C396.945 46.5859 393.459 45.0918 390.783 42.1035C388.127 39.1152 386.799 35.1602 386.799 30.2383V29.8574ZM392.248 30.502C392.248 34.0176 393.059 36.8398 394.68 38.9688C396.32 41.0977 398.508 42.1621 401.242 42.1621C403.996 42.1621 406.184 41.0879 407.805 38.9395C409.426 36.7715 410.236 33.7441 410.236 29.8574C410.236 26.3809 409.406 23.5684 407.746 21.4199C406.105 19.252 403.918 18.168 401.184 18.168C398.508 18.168 396.35 19.2324 394.709 21.3613C393.068 23.4902 392.248 26.5371 392.248 30.502ZM427.58 14.3008L427.756 18.2852C430.178 15.2383 433.342 13.7148 437.248 13.7148C443.947 13.7148 447.326 17.4941 447.385 25.0527V46H441.965V25.0234C441.945 22.7383 441.418 21.0488 440.383 19.9551C439.367 18.8613 437.775 18.3145 435.607 18.3145C433.85 18.3145 432.307 18.7832 430.979 19.7207C429.65 20.6582 428.615 21.8887 427.873 23.4121V46H422.453V14.3008H427.58ZM468.713 46.5859C464.416 46.5859 460.92 45.1797 458.225 42.3672C455.529 39.5352 454.182 35.7559 454.182 31.0293V30.0332C454.182 26.8887 454.777 24.0859 455.969 21.625C457.18 19.1445 458.859 17.2109 461.008 15.8242C463.176 14.418 465.52 13.7148 468.039 13.7148C472.16 13.7148 475.363 15.0723 477.648 17.7871C479.934 20.502 481.076 24.3887 481.076 29.4473V31.7031H459.602C459.68 34.8281 460.588 37.3574 462.326 39.291C464.084 41.2051 466.311 42.1621 469.006 42.1621C470.92 42.1621 472.541 41.7715 473.869 40.9902C475.197 40.209 476.359 39.1738 477.355 37.8848L480.666 40.4629C478.01 44.5449 474.025 46.5859 468.713 46.5859ZM468.039 18.168C465.852 18.168 464.016 18.9688 462.531 20.5703C461.047 22.1523 460.129 24.3789 459.777 27.25H475.656V26.8398C475.5 24.0859 474.758 21.957 473.43 20.4531C472.102 18.9297 470.305 18.168 468.039 18.168ZM505.832 37.5918C505.832 36.127 505.275 34.9941 504.162 34.1934C503.068 33.373 501.145 32.6699 498.391 32.084C495.656 31.498 493.479 30.7949 491.857 29.9746C490.256 29.1543 489.064 28.1777 488.283 27.0449C487.521 25.9121 487.141 24.5645 487.141 23.002C487.141 20.4043 488.234 18.207 490.422 16.4102C492.629 14.6133 495.441 13.7148 498.859 13.7148C502.453 13.7148 505.363 14.6426 507.59 16.498C509.836 18.3535 510.959 20.7266 510.959 23.6172H505.51C505.51 22.1328 504.875 20.8535 503.605 19.7793C502.355 18.7051 500.773 18.168 498.859 18.168C496.887 18.168 495.344 18.5977 494.23 19.457C493.117 20.3164 492.561 21.4395 492.561 22.8262C492.561 24.1348 493.078 25.1211 494.113 25.7852C495.148 26.4492 497.014 27.084 499.709 27.6895C502.424 28.2949 504.621 29.0176 506.301 29.8574C507.98 30.6973 509.221 31.7129 510.021 32.9043C510.842 34.0762 511.252 35.5117 511.252 37.2109C511.252 40.043 510.119 42.3184 507.854 44.0371C505.588 45.7363 502.648 46.5859 499.035 46.5859C496.496 46.5859 494.25 46.1367 492.297 45.2383C490.344 44.3398 488.811 43.0898 487.697 41.4883C486.604 39.8672 486.057 38.1191 486.057 36.2441H491.477C491.574 38.0605 492.297 39.5059 493.645 40.5801C495.012 41.6348 496.809 42.1621 499.035 42.1621C501.086 42.1621 502.727 41.752 503.957 40.9316C505.207 40.0918 505.832 38.9785 505.832 37.5918Z" fill="#1C768D"/>
<path d="M34.3281 32.4648L35.3214 32.5809L35.4518 31.4648H34.3281V32.4648ZM29.3184 42.9238L29.9765 43.6767L29.9769 43.6764L29.3184 42.9238ZM6.02734 41.166L5.26082 41.8082L5.26286 41.8107L6.02734 41.166ZM3.5957 12.1035L2.69207 11.6752L2.68982 11.68L3.5957 12.1035ZM9.63086 5.18945L10.1557 6.04068L10.1603 6.03781L9.63086 5.18945ZM29.5527 6.56641L28.8723 7.29921L28.8751 7.30181L29.5527 6.56641ZM34.3281 17.0547V18.0547H35.4336L35.3231 16.9548L34.3281 17.0547ZM28.6738 17.0547L27.684 17.1969L27.8072 18.0547H28.6738V17.0547ZM25.4805 9.67188L24.7956 10.4006L24.8 10.4047L25.4805 9.67188ZM10.1875 11.3711L9.39595 10.76L9.39314 10.7636L10.1875 11.3711ZM25.334 39.877L25.9803 40.64L25.9811 40.6393L25.334 39.877ZM28.6738 32.4648V31.4648H27.8174L27.6857 32.3111L28.6738 32.4648ZM33.3349 32.3488C32.8298 36.6699 31.2474 39.9072 28.6599 42.1713L29.9769 43.6764C33.0143 41.0186 34.7717 37.2832 35.3214 32.5809L33.3349 32.3488ZM28.6602 42.1709C26.0921 44.4158 22.626 45.5859 18.1562 45.5859V47.5859C22.9834 47.5859 26.9586 46.3147 29.9765 43.6767L28.6602 42.1709ZM18.1562 45.5859C13.3897 45.5859 9.63482 43.8929 6.79183 40.5214L5.26286 41.8107C8.51362 45.6657 12.8447 47.5859 18.1562 47.5859V45.5859ZM6.79386 40.5238C3.95598 37.1366 2.48633 32.552 2.48633 26.6641H0.486328C0.486328 32.8855 2.04402 37.9688 5.26082 41.8082L6.79386 40.5238ZM2.48633 26.6641V22.5625H0.486328V26.6641H2.48633ZM2.48633 22.5625C2.48633 18.716 3.16819 15.379 4.50159 12.527L2.68982 11.68C1.21071 14.8436 0.486328 18.4793 0.486328 22.5625H2.48633ZM4.49932 12.5319C5.85016 9.68214 7.73736 7.53166 10.1557 6.04067L9.10605 4.33823C6.32904 6.05037 4.19281 8.50926 2.69208 11.6752L4.49932 12.5319ZM10.1603 6.03781C12.5811 4.52705 15.4011 3.75781 18.6543 3.75781V1.75781C15.0716 1.75781 11.8759 2.60966 9.10143 4.3411L10.1603 6.03781ZM18.6543 3.75781C22.9902 3.75781 26.3608 4.96712 28.8723 7.2992L30.2332 5.83361C27.2759 3.08756 23.3809 1.75781 18.6543 1.75781V3.75781ZM28.8751 7.30181C31.3936 9.62242 32.903 12.8721 33.3331 17.1546L35.3231 16.9548C34.8548 12.292 33.1806 8.54945 30.2304 5.831L28.8751 7.30181ZM34.3281 16.0547H28.6738V18.0547H34.3281V16.0547ZM29.6637 16.9125C29.1593 13.4025 28.0381 10.6821 26.1609 8.93908L24.8 10.4047C26.2041 11.7085 27.2117 13.91 27.684 17.1969L29.6637 16.9125ZM26.1653 8.94316C24.3061 7.19594 21.7556 6.38672 18.6543 6.38672V8.38672C21.4124 8.38672 23.4127 9.10093 24.7957 10.4006L26.1653 8.94316ZM18.6543 6.38672C14.7761 6.38672 11.6511 7.83903 9.39596 10.76L10.979 11.9822C12.8255 9.59065 15.345 8.38672 18.6543 8.38672V6.38672ZM9.39314 10.7636C7.17907 13.659 6.14062 17.6854 6.14062 22.709H8.14062C8.14062 17.9278 9.13343 14.3957 10.9819 11.9785L9.39314 10.7636ZM6.14062 22.709V26.8398H8.14062V22.709H6.14062ZM6.14062 26.8398C6.14062 31.5986 7.1337 35.5054 9.22453 38.4621L10.8575 37.3074C9.08115 34.7954 8.14062 31.3389 8.14062 26.8398H6.14062ZM9.22453 38.4621C11.3539 41.4733 14.3697 42.9863 18.1562 42.9863V40.9863C14.9897 40.9863 12.5954 39.765 10.8575 37.3074L9.22453 38.4621ZM18.1562 42.9863C21.4166 42.9863 24.0749 42.254 25.9803 40.64L24.6876 39.1139C23.2727 40.3124 21.1459 40.9863 18.1562 40.9863V42.9863ZM25.9811 40.6393C27.9273 38.9873 29.0995 36.2345 29.6619 32.6185L27.6857 32.3111C27.1544 35.7265 26.1 37.915 24.6869 39.1146L25.9811 40.6393ZM28.6738 33.4648H34.3281V31.4648H28.6738V33.4648ZM47.6582 29.3008V28.3008H46.6582V29.3008H47.6582ZM47.6582 46V47H48.6582V46H47.6582ZM42.0332 46H41.0332V47H42.0332V46ZM42.0332 3.34375V2.34375H41.0332V3.34375H42.0332ZM68.7227 6.91797L68.0522 7.6599L68.0549 7.66235L68.7227 6.91797ZM68.8105 25.9609L69.4642 26.7178L69.4646 26.7174L68.8105 25.9609ZM47.6582 24.7012H46.6582V25.7012H47.6582V24.7012ZM64.6797 22.5918L65.3395 23.3433L65.3446 23.3387L64.6797 22.5918ZM58.0879 7.97266L58.1089 6.97288L58.0984 6.97266H58.0879V7.97266ZM47.6582 7.97266V6.97266H46.6582V7.97266H47.6582ZM46.6582 29.3008V46H48.6582V29.3008H46.6582ZM47.6582 45H42.0332V47H47.6582V45ZM43.0332 46V3.34375H41.0332V46H43.0332ZM42.0332 4.34375H57.7656V2.34375H42.0332V4.34375ZM57.7656 4.34375C62.2653 4.34375 65.6507 5.48971 68.0522 7.65989L69.3931 6.17604C66.5211 3.58061 62.6019 2.34375 57.7656 2.34375V4.34375ZM68.0549 7.66235C70.4771 9.83523 71.707 12.7073 71.707 16.3809H73.707C73.707 12.2028 72.2807 8.76633 69.3904 6.17359L68.0549 7.66235ZM71.707 16.3809C71.707 20.2965 70.4894 23.1873 68.1565 25.2045L69.4646 26.7174C72.327 24.2424 73.707 20.7465 73.707 16.3809H71.707ZM68.1569 25.2041C65.8234 27.2195 62.3901 28.3008 57.707 28.3008V30.3008C62.6724 30.3008 66.6415 29.1555 69.4642 26.7178L68.1569 25.2041ZM57.707 28.3008H47.6582V30.3008H57.707V28.3008ZM47.6582 25.7012H57.7656V23.7012H47.6582V25.7012ZM57.7656 25.7012C60.9171 25.7012 63.4927 24.9648 65.3395 23.3432L64.0199 21.8404C62.6636 23.0313 60.6298 23.7012 57.7656 23.7012V25.7012ZM65.3446 23.3387C67.2103 21.6778 68.082 19.3244 68.082 16.4395H66.082C66.082 18.906 65.3522 20.6542 64.0148 21.8449L65.3446 23.3387ZM68.082 16.4395C68.082 13.671 67.199 11.362 65.3689 9.62115L63.9905 11.0703C65.3635 12.3763 66.082 14.1297 66.082 16.4395H68.082ZM65.3689 9.62115C63.5427 7.884 61.0828 7.03527 58.1089 6.97288L58.0669 8.97244C60.6789 9.02723 62.6136 9.76054 63.9905 11.0703L65.3689 9.62115ZM58.0879 6.97266H47.6582V8.97266H58.0879V6.97266ZM46.6582 7.97266V24.7012H48.6582V7.97266H46.6582ZM103.996 26.2832V27.2832H104.996V26.2832H103.996ZM85.5098 26.2832V25.2832H84.5098V26.2832H85.5098ZM85.5098 41.4004H84.5098V42.4004H85.5098V41.4004ZM106.984 41.4004H107.984V40.4004H106.984V41.4004ZM106.984 46V47H107.984V46H106.984ZM79.8848 46H78.8848V47H79.8848V46ZM79.8848 3.34375V2.34375H78.8848V3.34375H79.8848ZM106.691 3.34375H107.691V2.34375H106.691V3.34375ZM106.691 7.97266V8.97266H107.691V7.97266H106.691ZM85.5098 7.97266V6.97266H84.5098V7.97266H85.5098ZM85.5098 21.6836H84.5098V22.6836H85.5098V21.6836ZM103.996 21.6836H104.996V20.6836H103.996V21.6836ZM103.996 25.2832H85.5098V27.2832H103.996V25.2832ZM84.5098 26.2832V41.4004H86.5098V26.2832H84.5098ZM85.5098 42.4004H106.984V40.4004H85.5098V42.4004ZM105.984 41.4004V46H107.984V41.4004H105.984ZM106.984 45H79.8848V47H106.984V45ZM80.8848 46V3.34375H78.8848V46H80.8848ZM79.8848 4.34375H106.691V2.34375H79.8848V4.34375ZM105.691 3.34375V7.97266H107.691V3.34375H105.691ZM106.691 6.97266H85.5098V8.97266H106.691V6.97266ZM84.5098 7.97266V21.6836H86.5098V7.97266H84.5098ZM85.5098 22.6836H103.996V20.6836H85.5098V22.6836ZM102.996 21.6836V26.2832H104.996V21.6836H102.996ZM120.021 46V47H121.021V46H120.021ZM114.396 46H113.396V47H114.396V46ZM114.396 3.34375V2.34375H113.396V3.34375H114.396ZM120.021 3.34375H121.021V2.34375H120.021V3.34375ZM120.021 45H114.396V47H120.021V45ZM115.396 46V3.34375H113.396V46H115.396ZM114.396 4.34375H120.021V2.34375H114.396V4.34375ZM119.021 3.34375V46H121.021V3.34375H119.021ZM150.842 29.3008V28.3008H149.842V29.3008H150.842ZM150.842 46V47H151.842V46H150.842ZM145.217 46H144.217V47H145.217V46ZM145.217 3.34375V2.34375H144.217V3.34375H145.217ZM171.906 6.91797L171.236 7.6599L171.238 7.66235L171.906 6.91797ZM171.994 25.9609L172.648 26.7178L172.648 26.7174L171.994 25.9609ZM150.842 24.7012H149.842V25.7012H150.842V24.7012ZM167.863 22.5918L168.523 23.3433L168.528 23.3387L167.863 22.5918ZM161.271 7.97266L161.292 6.97288L161.282 6.97266H161.271V7.97266ZM150.842 7.97266V6.97266H149.842V7.97266H150.842ZM149.842 29.3008V46H151.842V29.3008H149.842ZM150.842 45H145.217V47H150.842V45ZM146.217 46V3.34375H144.217V46H146.217ZM145.217 4.34375H160.949V2.34375H145.217V4.34375ZM160.949 4.34375C165.449 4.34375 168.834 5.48971 171.236 7.65989L172.577 6.17604C169.705 3.58061 165.785 2.34375 160.949 2.34375V4.34375ZM171.238 7.66235C173.661 9.83523 174.891 12.7073 174.891 16.3809H176.891C176.891 12.2028 175.464 8.76633 172.574 6.17359L171.238 7.66235ZM174.891 16.3809C174.891 20.2965 173.673 23.1873 171.34 25.2045L172.648 26.7174C175.511 24.2424 176.891 20.7465 176.891 16.3809H174.891ZM171.341 25.2041C169.007 27.2195 165.574 28.3008 160.891 28.3008V30.3008C165.856 30.3008 169.825 29.1555 172.648 26.7178L171.341 25.2041ZM160.891 28.3008H150.842V30.3008H160.891V28.3008ZM150.842 25.7012H160.949V23.7012H150.842V25.7012ZM160.949 25.7012C164.101 25.7012 166.676 24.9648 168.523 23.3432L167.203 21.8404C165.847 23.0313 163.813 23.7012 160.949 23.7012V25.7012ZM168.528 23.3387C170.394 21.6778 171.266 19.3244 171.266 16.4395H169.266C169.266 18.906 168.536 20.6542 167.198 21.8449L168.528 23.3387ZM171.266 16.4395C171.266 13.671 170.383 11.362 168.552 9.62115L167.174 11.0703C168.547 12.3763 169.266 14.1297 169.266 16.4395H171.266ZM168.552 9.62115C166.726 7.884 164.266 7.03527 161.292 6.97288L161.251 8.97244C163.862 9.02723 165.797 9.76054 167.174 11.0703L168.552 9.62115ZM161.271 6.97266H150.842V8.97266H161.271V6.97266ZM149.842 7.97266V24.7012H151.842V7.97266H149.842ZM201.789 42.8652L202.788 42.8279L202.692 40.2594L201.027 42.2174L201.789 42.8652ZM184.768 43.6562L184.021 44.3216L184.028 44.3293L184.768 43.6562ZM182.102 34.9258H181.102L181.102 34.9309L182.102 34.9258ZM182.102 14.3008V13.3008H181.102V14.3008H182.102ZM187.521 14.3008H188.521V13.3008H187.521V14.3008ZM201.643 37.3574L202.557 37.7625L202.643 37.569V37.3574H201.643ZM201.643 14.3008V13.3008H200.643V14.3008H201.643ZM207.062 14.3008H208.062V13.3008H207.062V14.3008ZM207.062 46V47H208.062V46H207.062ZM201.906 46L200.907 46.0374L200.943 47H201.906V46ZM201.027 42.2174C199.155 44.4196 196.371 45.5859 192.502 45.5859V47.5859C196.797 47.5859 200.205 46.2718 202.551 43.5131L201.027 42.2174ZM192.502 45.5859C189.321 45.5859 187.045 44.6733 185.507 42.9832L184.028 44.3293C186.045 46.5455 188.925 47.5859 192.502 47.5859V45.5859ZM185.514 42.991C183.979 41.2678 183.12 38.6339 183.102 34.9207L181.102 34.9309C181.122 38.913 182.041 42.0994 184.021 44.3215L185.514 42.991ZM183.102 34.9258V14.3008H181.102V34.9258H183.102ZM182.102 15.3008H187.521V13.3008H182.102V15.3008ZM186.521 14.3008V34.7793H188.521V14.3008H186.521ZM186.521 34.7793C186.521 37.2913 187.028 39.3609 188.21 40.8154C189.425 42.3095 191.213 42.9863 193.381 42.9863V40.9863C191.643 40.9863 190.501 40.462 189.762 39.5537C188.992 38.6059 188.521 37.0719 188.521 34.7793H186.521ZM193.381 42.9863C195.571 42.9863 197.475 42.5787 199.041 41.7015C200.62 40.8168 201.792 39.4886 202.557 37.7625L200.728 36.9524C200.126 38.3122 199.238 39.2984 198.063 39.9567C196.875 40.6224 195.332 40.9863 193.381 40.9863V42.9863ZM202.643 37.3574V14.3008H200.643V37.3574H202.643ZM201.643 15.3008H207.062V13.3008H201.643V15.3008ZM206.062 14.3008V46H208.062V14.3008H206.062ZM207.062 45H201.906V47H207.062V45ZM202.906 45.9626L202.788 42.8279L200.79 42.9026L200.907 46.0374L202.906 45.9626ZM238.82 42.1914L239.616 42.7965L239.618 42.7939L238.82 42.1914ZM220.568 42.3379L221.36 41.7266L219.759 39.6542L219.571 42.2661L220.568 42.3379ZM220.305 46V47H221.235L221.302 46.0718L220.305 46ZM215.324 46H214.324V47H215.324V46ZM215.324 1V0H214.324V1H215.324ZM220.744 1H221.744V0H220.744V1ZM220.744 17.7871H219.744V20.622L221.523 18.4145L220.744 17.7871ZM238.85 18.0801L238.05 18.6809L238.053 18.6843L238.85 18.0801ZM220.744 23.2949L219.839 22.8691L219.744 23.0714V23.2949H220.744ZM220.744 37.0059H219.744V37.2419L219.85 37.4531L220.744 37.0059ZM241.16 30.502C241.16 35.1958 240.082 38.8603 238.022 41.5889L239.618 42.7939C242.012 39.624 243.16 35.4956 243.16 30.502H241.16ZM238.024 41.5863C235.991 44.2617 233.3 45.5859 229.855 45.5859V47.5859C233.911 47.5859 237.197 45.9805 239.616 42.7965L238.024 41.5863ZM229.855 45.5859C226.119 45.5859 223.334 44.282 221.36 41.7266L219.777 42.9492C222.178 46.0578 225.584 47.5859 229.855 47.5859V45.5859ZM219.571 42.2661L219.307 45.9282L221.302 46.0718L221.566 42.4097L219.571 42.2661ZM220.305 45H215.324V47H220.305V45ZM216.324 46V1H214.324V46H216.324ZM215.324 2H220.744V0H215.324V2ZM219.744 1V17.7871H221.744V1H219.744ZM221.523 18.4145C223.499 15.9617 226.216 14.7148 229.797 14.7148V12.7148C225.682 12.7148 222.364 14.1828 219.965 17.1597L221.523 18.4145ZM229.797 14.7148C233.351 14.7148 236.064 16.0383 238.05 18.6809L239.649 17.4792C237.26 14.3015 233.938 12.7148 229.797 12.7148V14.7148ZM238.053 18.6843C240.086 21.3648 241.16 25.1104 241.16 30.0332H243.16C243.16 24.8388 242.028 20.6157 239.646 17.4758L238.053 18.6843ZM241.16 30.0332V30.502H243.16V30.0332H241.16ZM237.74 29.8867C237.74 26.0855 237.009 22.9996 235.417 20.7538L233.786 21.9103C235.046 23.6879 235.74 26.3052 235.74 29.8867H237.74ZM235.417 20.7538C233.786 18.4522 231.417 17.3145 228.449 17.3145V19.3145C230.833 19.3145 232.565 20.1884 233.786 21.9103L235.417 20.7538ZM228.449 17.3145C226.503 17.3145 224.771 17.7685 223.299 18.7197C221.829 19.67 220.684 21.0739 219.839 22.8691L221.649 23.7207C222.367 22.1956 223.287 21.1093 224.385 20.3994C225.482 19.6905 226.822 19.3145 228.449 19.3145V17.3145ZM219.744 23.2949V37.0059H221.744V23.2949H219.744ZM219.85 37.4531C220.744 39.2408 221.916 40.6373 223.39 41.5829C224.867 42.5306 226.587 42.9863 228.508 42.9863V40.9863C226.913 40.9863 225.581 40.612 224.47 39.8995C223.356 39.185 222.405 38.0912 221.639 36.5586L219.85 37.4531ZM228.508 42.9863C231.409 42.9863 233.741 41.8401 235.384 39.5522L233.76 38.3853C232.513 40.1209 230.802 40.9863 228.508 40.9863V42.9863ZM235.384 39.5522C237.007 37.2933 237.74 34.0181 237.74 29.8867H235.74C235.74 33.8413 235.028 36.6208 233.76 38.3853L235.384 39.5522ZM254.904 46V47H255.904V46H254.904ZM249.484 46H248.484V47H249.484V46ZM249.484 1V0H248.484V1H249.484ZM254.904 1H255.904V0H254.904V1ZM254.904 45H249.484V47H254.904V45ZM250.484 46V1H248.484V46H250.484ZM249.484 2H254.904V0H249.484V2ZM253.904 1V46H255.904V1H253.904ZM269.494 46V47H270.494V46H269.494ZM264.074 46H263.074V47H264.074V46ZM264.074 14.3008V13.3008H263.074V14.3008H264.074ZM269.494 14.3008H270.494V13.3008H269.494V14.3008ZM264.426 3.66602L263.684 2.99573L263.678 3.00243L263.672 3.00923L264.426 3.66602ZM264.426 8.08984L263.682 8.75881L263.689 8.76554L263.695 8.77216L264.426 8.08984ZM269.494 45H264.074V47H269.494V45ZM265.074 46V14.3008H263.074V46H265.074ZM264.074 15.3008H269.494V13.3008H264.074V15.3008ZM268.494 14.3008V46H270.494V14.3008H268.494ZM264.635 5.89258C264.635 5.23048 264.827 4.72845 265.18 4.3228L263.672 3.00923C262.97 3.81451 262.635 4.79686 262.635 5.89258H264.635ZM265.168 4.3363C265.473 3.99815 265.968 3.75781 266.828 3.75781V1.75781C265.578 1.75781 264.472 2.12294 263.684 2.99573L265.168 4.3363ZM266.828 3.75781C267.688 3.75781 268.183 3.99815 268.488 4.3363L269.973 2.99573C269.184 2.12294 268.078 1.75781 266.828 1.75781V3.75781ZM268.488 4.3363C268.856 4.7431 269.051 5.24051 269.051 5.89258H271.051C271.051 4.78683 270.699 3.79987 269.973 2.99573L268.488 4.3363ZM269.051 5.89258C269.051 6.54481 268.856 7.02534 268.499 7.40753L269.962 8.77216C270.699 7.98247 271.051 6.99816 271.051 5.89258H269.051ZM268.499 7.40753C268.196 7.73223 267.698 7.96875 266.828 7.96875V9.96875C268.068 9.96875 269.171 9.61934 269.962 8.77216L268.499 7.40753ZM266.828 7.96875C265.959 7.96875 265.46 7.73223 265.157 7.40753L263.695 8.77216C264.485 9.61934 265.588 9.96875 266.828 9.96875V7.96875ZM265.169 7.42088C264.826 7.0401 264.635 6.55503 264.635 5.89258H262.635C262.635 6.98794 262.97 7.96771 263.682 8.75881L265.169 7.42088ZM298.381 36.0098V35.0098H297.466L297.385 35.9212L298.381 36.0098ZM303.508 36.0098L304.506 36.0634L304.563 35.0098H303.508V36.0098ZM297.004 45.1211L296.553 44.2285L296.549 44.2303L297.004 45.1211ZM280.598 42.2793L279.846 42.9393L279.851 42.9446L280.598 42.2793ZM283.352 15.707L282.822 14.8586L282.819 14.8608L283.352 15.707ZM299.729 16.9082L299.056 17.6484L299.059 17.6512L299.729 16.9082ZM303.508 25.1992V26.1992H304.555L304.507 25.1533L303.508 25.1992ZM298.381 25.1992L297.384 25.2752L297.454 26.1992H298.381V25.1992ZM296.037 20.1602L295.345 20.8824L295.351 20.8873L295.356 20.8922L296.037 20.1602ZM284.465 21.1562L283.67 20.5488L283.67 20.55L284.465 21.1562ZM290.91 43.1621C293.063 43.1621 294.977 42.5034 296.608 41.1811L295.349 39.6275C294.089 40.649 292.624 41.1621 290.91 41.1621V43.1621ZM296.608 41.1811C298.251 39.8491 299.195 38.1416 299.377 36.0983L297.385 35.9212C297.254 37.3936 296.597 38.6157 295.349 39.6275L296.608 41.1811ZM298.381 37.0098H303.508V35.0098H298.381V37.0098ZM302.509 35.9561C302.423 37.5665 301.87 39.1171 300.814 40.6205L302.451 41.7701C303.7 39.9923 304.398 38.0858 304.506 36.0634L302.509 35.9561ZM300.814 40.6205C299.764 42.1159 298.352 43.3199 296.553 44.2285L297.455 46.0137C299.523 44.9691 301.197 43.5559 302.451 41.7701L300.814 40.6205ZM296.549 44.2303C294.776 45.1351 292.901 45.5859 290.91 45.5859V47.5859C293.217 47.5859 295.404 47.0602 297.458 46.0119L296.549 44.2303ZM290.91 45.5859C286.84 45.5859 283.689 44.2448 281.344 41.614L279.851 42.9446C282.624 46.056 286.347 47.5859 290.91 47.5859V45.5859ZM281.349 41.6194C279.013 38.9603 277.789 35.2749 277.789 30.4434H275.789C275.789 35.6118 277.104 39.8171 279.846 42.9392L281.349 41.6194ZM277.789 30.4434V29.5352H275.789V30.4434H277.789ZM277.789 29.5352C277.789 26.5729 278.332 23.9783 279.393 21.7292L277.584 20.8762C276.379 23.4319 275.789 26.3255 275.789 29.5352H277.789ZM279.393 21.7292C280.45 19.4876 281.947 17.773 283.884 16.5533L282.819 14.8608C280.537 16.2973 278.792 18.3132 277.584 20.8762L279.393 21.7292ZM283.881 16.5555C285.828 15.3407 288.148 14.7148 290.881 14.7148V12.7148C287.832 12.7148 285.133 13.4171 282.822 14.8586L283.881 16.5555ZM290.881 14.7148C294.22 14.7148 296.919 15.7075 299.056 17.6484L300.401 16.168C297.85 13.8511 294.651 12.7148 290.881 12.7148V14.7148ZM299.059 17.6512C301.209 19.5878 302.364 22.0932 302.509 25.2451L304.507 25.1533C304.339 21.5084 302.975 18.4864 300.398 16.1652L299.059 17.6512ZM303.508 24.1992H298.381V26.1992H303.508V24.1992ZM299.378 25.1232C299.204 22.8412 298.322 20.9207 296.718 19.4281L295.356 20.8922C296.564 22.0168 297.245 23.4557 297.384 25.2752L299.378 25.1232ZM296.729 19.438C295.142 17.9186 293.17 17.168 290.881 17.168V19.168C292.693 19.168 294.158 19.7454 295.345 20.8824L296.729 19.438ZM290.881 17.168C287.851 17.168 285.404 18.2825 283.67 20.5488L285.259 21.7637C286.573 20.0456 288.403 19.168 290.881 19.168V17.168ZM283.67 20.55C281.98 22.7658 281.209 25.8776 281.209 29.7402H283.209C283.209 26.1029 283.942 23.492 285.26 21.7625L283.67 20.55ZM281.209 29.7402V30.7656H283.209V29.7402H281.209ZM281.209 30.7656C281.209 34.5378 281.983 37.5974 283.67 39.8094L285.26 38.5968C283.939 36.8636 283.209 34.2982 283.209 30.7656H281.209ZM283.67 39.8094C285.388 42.0638 287.85 43.1621 290.91 43.1621V41.1621C288.384 41.1621 286.549 40.2877 285.26 38.5968L283.67 39.8094ZM329.172 46L328.277 46.4472L328.554 47H329.172V46ZM328.41 42.6602L329.403 42.5391L329.148 40.4516L327.69 41.9666L328.41 42.6602ZM311.682 43.9492L311.016 44.6955L311.024 44.7022L311.682 43.9492ZM312.443 29.5352L313.031 30.3442L313.032 30.3433L312.443 29.5352ZM328.322 26.7812V27.7812H329.322V26.7812H328.322ZM326.623 19.7793L325.916 20.4864L325.922 20.4925L326.623 19.7793ZM314.787 23.0898V24.0898H315.787V23.0898H314.787ZM309.338 23.0898H308.338V24.0898H309.338V23.0898ZM311.008 18.5195L310.213 17.9129L310.212 17.9144L311.008 18.5195ZM315.578 15.0039L315.172 14.0901L315.169 14.0916L315.578 15.0039ZM330.52 16.4688L329.856 17.2169L329.86 17.2204L330.52 16.4688ZM333.742 23.998H334.742V23.9859L334.742 23.9737L333.742 23.998ZM334.855 45.5312H335.855V45.3246L335.774 45.1348L334.855 45.5312ZM334.855 46V47H335.855V46H334.855ZM328.322 37.123L329.222 37.5602L329.322 37.3532V37.123H328.322ZM328.322 30.6191H329.322V29.6191H328.322V30.6191ZM330.066 45.5528C329.838 45.0963 329.598 44.1368 329.403 42.5391L327.418 42.7812C327.613 44.3866 327.881 45.6537 328.277 46.4472L330.066 45.5528ZM327.69 41.9666C325.35 44.3966 322.599 45.5859 319.387 45.5859V47.5859C323.166 47.5859 326.431 46.1581 329.131 43.3537L327.69 41.9666ZM319.387 45.5859C316.46 45.5859 314.139 44.7683 312.34 43.1962L311.024 44.7022C313.248 46.6457 316.063 47.5859 319.387 47.5859V45.5859ZM312.347 43.203C310.572 41.619 309.693 39.6463 309.693 37.2109H307.693C307.693 40.2053 308.807 42.7247 311.016 44.6954L312.347 43.203ZM309.693 37.2109C309.693 34.2047 310.81 31.9579 313.031 30.3442L311.856 28.7261C309.077 30.7452 307.693 33.6156 307.693 37.2109H309.693ZM313.032 30.3433C315.318 28.6776 318.617 27.7812 323.049 27.7812V25.7812C318.38 25.7812 314.607 26.7209 311.854 28.727L313.032 30.3433ZM323.049 27.7812H328.322V25.7812H323.049V27.7812ZM329.322 26.7812V24.291H327.322V26.7812H329.322ZM329.322 24.291C329.322 22.1839 328.684 20.4031 327.324 19.0661L325.922 20.4925C326.827 21.3821 327.322 22.6091 327.322 24.291H329.322ZM327.33 19.0722C325.948 17.6902 323.983 17.0801 321.613 17.0801V19.0801C323.657 19.0801 325.032 19.6028 325.916 20.4864L327.33 19.0722ZM321.613 17.0801C319.505 17.0801 317.663 17.6155 316.152 18.7435L317.348 20.3464C318.454 19.5212 319.854 19.0801 321.613 19.0801V17.0801ZM316.152 18.7435C314.641 19.8709 313.787 21.3291 313.787 23.0898H315.787C315.787 22.0772 316.242 21.1721 317.348 20.3464L316.152 18.7435ZM314.787 22.0898H309.338V24.0898H314.787V22.0898ZM310.338 23.0898C310.338 21.7607 310.801 20.445 311.804 19.1246L310.212 17.9144C308.989 19.5238 308.338 21.2549 308.338 23.0898H310.338ZM311.803 19.1262C312.823 17.7899 314.206 16.7159 315.988 15.9162L315.169 14.0916C313.122 15.0106 311.459 16.2804 310.213 17.9129L311.803 19.1262ZM315.984 15.9177C317.779 15.1201 319.758 14.7148 321.936 14.7148V12.7148C319.504 12.7148 317.244 13.169 315.172 14.0901L315.984 15.9177ZM321.936 14.7148C325.423 14.7148 328.021 15.5893 329.856 17.2169L331.183 15.7206C328.878 13.6763 325.753 12.7148 321.936 12.7148V14.7148ZM329.86 17.2204C331.685 18.822 332.67 21.0487 332.742 24.0224L334.742 23.9737C334.658 20.5412 333.494 17.7483 331.179 15.7171L329.86 17.2204ZM332.742 23.998V38.5879H334.742V23.998H332.742ZM332.742 38.5879C332.742 41.5668 333.12 44.0338 333.937 45.9277L335.774 45.1348C335.107 43.5912 334.742 41.4293 334.742 38.5879H332.742ZM333.855 45.5312V46H335.855V45.5312H333.855ZM334.855 45H329.172V47H334.855V45ZM320.178 42.8691C322.059 42.8691 323.842 42.3803 325.511 41.417L324.512 39.6846C323.135 40.479 321.695 40.8691 320.178 40.8691V42.8691ZM325.511 41.417C327.186 40.4511 328.44 39.1681 329.222 37.5602L327.423 36.6859C326.837 37.8905 325.885 38.8926 324.512 39.6846L325.511 41.417ZM329.322 37.123V30.6191H327.322V37.123H329.322ZM328.322 29.6191H324.074V31.6191H328.322V29.6191ZM324.074 29.6191C320.689 29.6191 317.986 30.1087 316.098 31.2136C314.128 32.367 313.113 34.1552 313.113 36.4492H315.113C315.113 34.8565 315.759 33.7297 317.109 32.9397C318.541 32.1013 320.819 31.6191 324.074 31.6191V29.6191ZM313.113 36.4492C313.113 38.3949 313.775 40.0215 315.167 41.1975L316.458 39.6697C315.584 38.9316 315.113 37.902 315.113 36.4492H313.113ZM315.167 41.1975C316.515 42.3359 318.213 42.8691 320.178 42.8691V40.8691C318.588 40.8691 317.376 40.4454 316.458 39.6697L315.167 41.1975ZM362.424 36.0098V35.0098H361.509L361.428 35.9212L362.424 36.0098ZM367.551 36.0098L368.549 36.0634L368.606 35.0098H367.551V36.0098ZM361.047 45.1211L360.596 44.2285L360.592 44.2303L361.047 45.1211ZM344.641 42.2793L343.889 42.9393L343.894 42.9446L344.641 42.2793ZM347.395 15.707L346.865 14.8586L346.862 14.8608L347.395 15.707ZM363.771 16.9082L363.099 17.6484L363.102 17.6512L363.771 16.9082ZM367.551 25.1992V26.1992H368.598L368.55 25.1533L367.551 25.1992ZM362.424 25.1992L361.427 25.2752L361.497 26.1992H362.424V25.1992ZM360.08 20.1602L359.388 20.8824L359.394 20.8873L359.399 20.8922L360.08 20.1602ZM348.508 21.1562L347.713 20.5488L347.713 20.55L348.508 21.1562ZM354.953 43.1621C357.106 43.1621 359.02 42.5034 360.651 41.1811L359.392 39.6275C358.132 40.649 356.667 41.1621 354.953 41.1621V43.1621ZM360.651 41.1811C362.294 39.8491 363.238 38.1416 363.42 36.0983L361.428 35.9212C361.297 37.3936 360.64 38.6157 359.392 39.6275L360.651 41.1811ZM362.424 37.0098H367.551V35.0098H362.424V37.0098ZM366.552 35.9561C366.466 37.5665 365.913 39.1171 364.857 40.6205L366.494 41.7701C367.743 39.9923 368.441 38.0858 368.549 36.0634L366.552 35.9561ZM364.857 40.6205C363.807 42.1159 362.395 43.3199 360.596 44.2285L361.498 46.0137C363.566 44.9691 365.24 43.5559 366.494 41.7701L364.857 40.6205ZM360.592 44.2303C358.819 45.1351 356.944 45.5859 354.953 45.5859V47.5859C357.26 47.5859 359.447 47.0602 361.501 46.0119L360.592 44.2303ZM354.953 45.5859C350.883 45.5859 347.732 44.2448 345.387 41.614L343.894 42.9446C346.667 46.056 350.39 47.5859 354.953 47.5859V45.5859ZM345.392 41.6194C343.056 38.9603 341.832 35.2749 341.832 30.4434H339.832C339.832 35.6118 341.147 39.8171 343.889 42.9392L345.392 41.6194ZM341.832 30.4434V29.5352H339.832V30.4434H341.832ZM341.832 29.5352C341.832 26.5729 342.375 23.9783 343.436 21.7292L341.627 20.8762C340.422 23.4319 339.832 26.3255 339.832 29.5352H341.832ZM343.436 21.7292C344.493 19.4876 345.99 17.773 347.927 16.5533L346.862 14.8608C344.58 16.2973 342.835 18.3132 341.627 20.8762L343.436 21.7292ZM347.924 16.5555C349.871 15.3407 352.191 14.7148 354.924 14.7148V12.7148C351.875 12.7148 349.176 13.4171 346.865 14.8586L347.924 16.5555ZM354.924 14.7148C358.263 14.7148 360.962 15.7075 363.099 17.6484L364.444 16.168C361.893 13.8511 358.694 12.7148 354.924 12.7148V14.7148ZM363.102 17.6512C365.252 19.5878 366.407 22.0932 366.552 25.2451L368.55 25.1533C368.382 21.5084 367.018 18.4864 364.441 16.1652L363.102 17.6512ZM367.551 24.1992H362.424V26.1992H367.551V24.1992ZM363.421 25.1232C363.247 22.8412 362.365 20.9207 360.761 19.4281L359.399 20.8922C360.607 22.0168 361.288 23.4557 361.427 25.2752L363.421 25.1232ZM360.772 19.438C359.185 17.9186 357.213 17.168 354.924 17.168V19.168C356.736 19.168 358.201 19.7454 359.388 20.8824L360.772 19.438ZM354.924 17.168C351.894 17.168 349.446 18.2825 347.713 20.5488L349.302 21.7637C350.616 20.0456 352.446 19.168 354.924 19.168V17.168ZM347.713 20.55C346.023 22.7658 345.252 25.8776 345.252 29.7402H347.252C347.252 26.1029 347.985 23.492 349.303 21.7625L347.713 20.55ZM345.252 29.7402V30.7656H347.252V29.7402H345.252ZM345.252 30.7656C345.252 34.5378 346.026 37.5974 347.713 39.8094L349.303 38.5968C347.982 36.8636 347.252 34.2982 347.252 30.7656H345.252ZM347.713 39.8094C349.431 42.0638 351.893 43.1621 354.953 43.1621V41.1621C352.427 41.1621 350.592 40.2877 349.303 38.5968L347.713 39.8094ZM379.533 46V47H380.533V46H379.533ZM374.113 46H373.113V47H374.113V46ZM374.113 14.3008V13.3008H373.113V14.3008H374.113ZM379.533 14.3008H380.533V13.3008H379.533V14.3008ZM374.465 3.66602L373.723 2.99573L373.717 3.00243L373.711 3.00923L374.465 3.66602ZM374.465 8.08984L373.722 8.75881L373.728 8.76554L373.734 8.77216L374.465 8.08984ZM379.533 45H374.113V47H379.533V45ZM375.113 46V14.3008H373.113V46H375.113ZM374.113 15.3008H379.533V13.3008H374.113V15.3008ZM378.533 14.3008V46H380.533V14.3008H378.533ZM374.674 5.89258C374.674 5.23048 374.866 4.72845 375.219 4.3228L373.711 3.00923C373.009 3.81451 372.674 4.79686 372.674 5.89258H374.674ZM375.207 4.3363C375.512 3.99815 376.007 3.75781 376.867 3.75781V1.75781C375.618 1.75781 374.511 2.12294 373.723 2.99573L375.207 4.3363ZM376.867 3.75781C377.727 3.75781 378.222 3.99815 378.527 4.3363L380.012 2.99573C379.223 2.12294 378.117 1.75781 376.867 1.75781V3.75781ZM378.527 4.3363C378.895 4.7431 379.09 5.24051 379.09 5.89258H381.09C381.09 4.78683 380.738 3.79987 380.012 2.99573L378.527 4.3363ZM379.09 5.89258C379.09 6.54481 378.895 7.02534 378.538 7.40753L380.001 8.77216C380.738 7.98247 381.09 6.99816 381.09 5.89258H379.09ZM378.538 7.40753C378.235 7.73223 377.737 7.96875 376.867 7.96875V9.96875C378.107 9.96875 379.21 9.61934 380.001 8.77216L378.538 7.40753ZM376.867 7.96875C375.998 7.96875 375.499 7.73223 375.196 7.40753L373.734 8.77216C374.524 9.61934 375.627 9.96875 376.867 9.96875V7.96875ZM375.208 7.42088C374.865 7.0401 374.674 6.55503 374.674 5.89258H372.674C372.674 6.98794 373.01 7.96771 373.722 8.75881L375.208 7.42088ZM388.615 21.4785L387.719 21.0341L387.717 21.0398L388.615 21.4785ZM393.713 15.7363L393.188 14.8849L393.185 14.887L393.713 15.7363ZM411.643 18.1973L410.895 18.8616L410.898 18.8643L411.643 18.1973ZM413.869 38.8223L412.969 38.3865L412.968 38.3895L413.869 38.8223ZM408.801 44.5352L408.274 43.685L408.271 43.6872L408.801 44.5352ZM390.783 42.1035L390.036 42.7679L390.038 42.7706L390.783 42.1035ZM394.68 38.9688L393.884 39.5746L393.888 39.5792L394.68 38.9688ZM407.805 38.9395L408.603 39.5418L408.606 39.5383L407.805 38.9395ZM407.746 21.4199L406.949 22.0234L406.955 22.0314L407.746 21.4199ZM387.799 29.8574C387.799 26.8848 388.378 24.2448 389.514 21.9172L387.717 21.0398C386.431 23.6731 385.799 26.6191 385.799 29.8574H387.799ZM389.511 21.9229C390.666 19.5943 392.244 17.8268 394.241 16.5856L393.185 14.887C390.846 16.3411 389.025 18.4018 387.719 21.0341L389.511 21.9229ZM394.237 16.5877C396.254 15.3456 398.559 14.7148 401.184 14.7148V12.7148C398.222 12.7148 395.547 13.4317 393.188 14.8849L394.237 16.5877ZM401.184 14.7148C405.24 14.7148 408.445 16.1052 410.895 18.8616L412.39 17.5329C409.528 14.3127 405.76 12.7148 401.184 12.7148V14.7148ZM410.898 18.8643C413.373 21.6285 414.656 25.3456 414.656 30.1211H416.656C416.656 24.9748 415.264 20.7426 412.388 17.5302L410.898 18.8643ZM414.656 30.1211V30.502H416.656V30.1211H414.656ZM414.656 30.502C414.656 33.4565 414.087 36.078 412.969 38.3865L414.769 39.258C416.034 36.6447 416.656 33.7193 416.656 30.502H414.656ZM412.968 38.3895C411.875 40.6667 410.312 42.4228 408.274 43.6851L409.327 45.3853C411.704 43.9131 413.52 41.8606 414.771 39.255L412.968 38.3895ZM408.271 43.6872C406.259 44.9447 403.927 45.5859 401.242 45.5859V47.5859C404.261 47.5859 406.968 46.86 409.331 45.3832L408.271 43.6872ZM401.242 45.5859C397.207 45.5859 394 44.1964 391.528 41.4364L390.038 42.7706C392.918 45.9872 396.684 47.5859 401.242 47.5859V45.5859ZM391.531 41.4392C389.072 38.6737 387.799 34.9743 387.799 30.2383H385.799C385.799 35.3461 387.181 39.5568 390.036 42.7679L391.531 41.4392ZM387.799 30.2383V29.8574H385.799V30.2383H387.799ZM391.248 30.502C391.248 34.1678 392.094 37.2238 393.884 39.5746L395.475 38.3629C394.023 36.4559 393.248 33.8674 393.248 30.502H391.248ZM393.888 39.5792C395.721 41.9587 398.204 43.1621 401.242 43.1621V41.1621C398.812 41.1621 396.919 40.2366 395.472 38.3583L393.888 39.5792ZM401.242 43.1621C404.301 43.1621 406.788 41.9474 408.603 39.5418L407.006 38.3371C405.579 40.2284 403.691 41.1621 401.242 41.1621V43.1621ZM408.606 39.5383C410.401 37.1366 411.236 33.8691 411.236 29.8574H409.236C409.236 33.6192 408.45 36.4064 407.004 38.3406L408.606 39.5383ZM411.236 29.8574C411.236 26.2223 410.367 23.1759 408.537 20.8085L406.955 22.0314C408.446 23.9608 409.236 26.5394 409.236 29.8574H411.236ZM408.543 20.8165C406.713 18.397 404.229 17.168 401.184 17.168V19.168C403.607 19.168 405.498 20.1069 406.949 22.0234L408.543 20.8165ZM401.184 17.168C398.196 17.168 395.746 18.3776 393.917 20.7509L395.501 21.9717C396.953 20.0872 398.82 19.168 401.184 19.168V17.168ZM393.917 20.7509C392.091 23.1206 391.248 26.417 391.248 30.502H393.248C393.248 26.6572 394.046 23.8599 395.501 21.9717L393.917 20.7509ZM427.58 14.3008L428.579 14.2567L428.537 13.3008H427.58V14.3008ZM427.756 18.2852L426.757 18.3292L426.875 21.0008L428.539 18.9074L427.756 18.2852ZM447.385 25.0527H448.385L448.385 25.045L447.385 25.0527ZM447.385 46V47H448.385V46H447.385ZM441.965 46H440.965V47H441.965V46ZM441.965 25.0234H442.965L442.965 25.0149L441.965 25.0234ZM440.383 19.9551L439.65 20.6356L439.657 20.6425L440.383 19.9551ZM427.873 23.4121L426.974 22.9741L426.873 23.1815V23.4121H427.873ZM427.873 46V47H428.873V46H427.873ZM422.453 46H421.453V47H422.453V46ZM422.453 14.3008V13.3008H421.453V14.3008H422.453ZM426.581 14.3449L426.757 18.3292L428.755 18.2411L428.579 14.2567L426.581 14.3449ZM428.539 18.9074C430.77 16.1002 433.645 14.7148 437.248 14.7148V12.7148C433.038 12.7148 429.585 14.3764 426.973 17.6629L428.539 18.9074ZM437.248 14.7148C440.41 14.7148 442.617 15.601 444.061 17.2158C445.525 18.8531 446.356 21.4083 446.385 25.0605L448.385 25.045C448.354 21.1386 447.467 18.0248 445.552 15.8828C443.617 13.7183 440.786 12.7148 437.248 12.7148V14.7148ZM446.385 25.0527V46H448.385V25.0527H446.385ZM447.385 45H441.965V47H447.385V45ZM442.965 46V25.0234H440.965V46H442.965ZM442.965 25.0149C442.944 22.6043 442.389 20.6202 441.109 19.2677L439.657 20.6425C440.447 21.4774 440.946 22.8723 440.965 25.032L442.965 25.0149ZM441.116 19.2746C439.839 17.8995 437.926 17.3145 435.607 17.3145V19.3145C437.625 19.3145 438.896 19.8232 439.65 20.6355L441.116 19.2746ZM435.607 17.3145C433.661 17.3145 431.913 17.8373 430.402 18.9037L431.555 20.5377C432.701 19.7291 434.038 19.3145 435.607 19.3145V17.3145ZM430.402 18.9037C428.93 19.9426 427.787 21.3059 426.974 22.9741L428.772 23.8501C429.444 22.4714 430.371 21.3738 431.555 20.5377L430.402 18.9037ZM426.873 23.4121V46H428.873V23.4121H426.873ZM427.873 45H422.453V47H427.873V45ZM423.453 46V14.3008H421.453V46H423.453ZM422.453 15.3008H427.58V13.3008H422.453V15.3008ZM458.225 42.3672L457.5 43.0566L457.503 43.0591L458.225 42.3672ZM455.969 21.625L455.07 21.1863L455.069 21.1893L455.969 21.625ZM461.008 15.8242L461.55 16.6644L461.552 16.6632L461.008 15.8242ZM477.648 17.7871L476.883 18.4311L477.648 17.7871ZM481.076 31.7031V32.7031H482.076V31.7031H481.076ZM459.602 31.7031V30.7031H458.576L458.602 31.7281L459.602 31.7031ZM462.326 39.291L461.582 39.9596L461.59 39.9674L462.326 39.291ZM477.355 37.8848L477.97 37.0958L477.178 36.479L476.564 37.2733L477.355 37.8848ZM480.666 40.4629L481.504 41.0083L482.005 40.2383L481.28 39.6739L480.666 40.4629ZM462.531 20.5703L463.261 21.2546L463.265 21.2501L462.531 20.5703ZM459.777 27.25L458.785 27.1285L458.647 28.25H459.777V27.25ZM475.656 27.25V28.25H476.656V27.25H475.656ZM475.656 26.8398H476.656V26.8115L476.655 26.7832L475.656 26.8398ZM473.43 20.4531L472.676 21.1103L472.68 21.1151L473.43 20.4531ZM468.713 45.5859C464.658 45.5859 461.433 44.2696 458.947 41.6753L457.503 43.0591C460.407 46.0897 464.174 47.5859 468.713 47.5859V45.5859ZM458.949 41.6778C456.466 39.0691 455.182 35.556 455.182 31.0293H453.182C453.182 35.9557 454.592 40.0012 457.5 43.0566L458.949 41.6778ZM455.182 31.0293V30.0332H453.182V31.0293H455.182ZM455.182 30.0332C455.182 27.0169 455.752 24.3668 456.869 22.0607L455.069 21.1893C453.802 23.8051 453.182 26.7604 453.182 30.0332H455.182ZM456.867 22.0637C458.005 19.7335 459.567 17.9444 461.55 16.6644L460.466 14.984C458.152 16.4774 456.354 18.5555 455.07 21.1863L456.867 22.0637ZM461.552 16.6632C463.562 15.3592 465.718 14.7148 468.039 14.7148V12.7148C465.321 12.7148 462.789 13.4768 460.464 14.9853L461.552 16.6632ZM468.039 14.7148C471.918 14.7148 474.82 15.9796 476.883 18.4311L478.413 17.1431C475.907 14.165 472.402 12.7148 468.039 12.7148V14.7148ZM476.883 18.4311C478.964 20.9024 480.076 24.5257 480.076 29.4473H482.076C482.076 24.2516 480.904 20.1015 478.413 17.1431L476.883 18.4311ZM480.076 29.4473V31.7031H482.076V29.4473H480.076ZM481.076 30.7031H459.602V32.7031H481.076V30.7031ZM458.602 31.7281C458.685 35.0409 459.654 37.8146 461.583 39.9596L463.07 38.6225C461.522 36.9002 460.675 34.6153 460.601 31.6781L458.602 31.7281ZM461.59 39.9674C463.545 42.0962 466.042 43.1621 469.006 43.1621V41.1621C466.579 41.1621 464.623 40.3139 463.063 38.6146L461.59 39.9674ZM469.006 43.1621C471.055 43.1621 472.861 42.7433 474.376 41.8522L473.362 40.1283C472.221 40.7997 470.784 41.1621 469.006 41.1621V43.1621ZM474.376 41.8522C475.82 41.0027 477.077 39.8803 478.147 38.4962L476.564 37.2733C475.642 38.4674 474.574 39.4153 473.362 40.1283L474.376 41.8522ZM476.741 38.6737L480.052 41.2519L481.28 39.6739L477.97 37.0958L476.741 38.6737ZM479.828 39.9175C477.375 43.6867 473.724 45.5859 468.713 45.5859V47.5859C474.327 47.5859 478.644 45.4032 481.504 41.0083L479.828 39.9175ZM468.039 17.168C465.574 17.168 463.472 18.0844 461.798 19.8905L463.265 21.2501C464.559 19.8531 466.129 19.168 468.039 19.168V17.168ZM461.802 19.8861C460.131 21.6673 459.154 24.1162 458.785 27.1285L460.77 27.3715C461.104 24.6416 461.963 22.6374 463.26 21.2546L461.802 19.8861ZM459.777 28.25H475.656V26.25H459.777V28.25ZM476.656 27.25V26.8398H474.656V27.25H476.656ZM476.655 26.7832C476.49 23.8883 475.703 21.5164 474.179 19.7912L472.68 21.1151C473.813 22.3977 474.51 24.2836 474.658 26.8965L476.655 26.7832ZM474.183 19.796C472.641 18.0269 470.555 17.168 468.039 17.168V19.168C470.055 19.168 471.562 19.8325 472.676 21.1103L474.183 19.796ZM504.162 34.1934L503.562 34.9934L503.57 34.9993L503.578 35.0052L504.162 34.1934ZM498.391 32.084L498.181 33.0618L498.183 33.0621L498.391 32.084ZM491.857 29.9746L491.402 30.8647L491.406 30.8669L491.857 29.9746ZM488.283 27.0449L487.453 27.603L487.46 27.6127L488.283 27.0449ZM490.422 16.4102L489.79 15.6347L489.787 15.6374L490.422 16.4102ZM507.59 16.498L506.95 17.2663L506.953 17.269L507.59 16.498ZM510.959 23.6172V24.6172H511.959V23.6172H510.959ZM505.51 23.6172H504.51V24.6172H505.51V23.6172ZM503.605 19.7793L502.954 20.5377L502.96 20.5427L503.605 19.7793ZM499.709 27.6895L499.49 28.6651L499.491 28.6655L499.709 27.6895ZM506.301 29.8574L505.854 30.7519L506.301 29.8574ZM510.021 32.9043L509.192 33.4621L509.197 33.47L509.202 33.4778L510.021 32.9043ZM507.854 44.0371L508.454 44.8371L508.458 44.8338L507.854 44.0371ZM487.697 41.4883L486.868 42.0476L486.876 42.0591L487.697 41.4883ZM486.057 36.2441V35.2441H485.057V36.2441H486.057ZM491.477 36.2441L492.475 36.1905L492.424 35.2441H491.477V36.2441ZM493.645 40.5801L493.021 41.3621L493.027 41.367L493.034 41.3719L493.645 40.5801ZM503.957 40.9316L504.512 41.7637L504.515 41.7617L503.957 40.9316ZM506.832 37.5918C506.832 35.8309 506.141 34.3848 504.746 33.3816L503.578 35.0052C504.41 35.6035 504.832 36.423 504.832 37.5918H506.832ZM504.762 33.3934C503.483 32.4344 501.375 31.6967 498.599 31.1059L498.183 33.0621C500.914 33.6432 502.653 34.3117 503.562 34.9934L504.762 33.3934ZM498.6 31.1062C495.91 30.5297 493.824 29.849 492.309 29.0823L491.406 30.8669C493.133 31.7409 495.403 32.4664 498.181 33.0618L498.6 31.1062ZM492.313 29.0846C490.815 28.3172 489.769 27.4384 489.106 26.4772L487.46 27.6127C488.36 28.9171 489.697 29.9914 491.402 30.8647L492.313 29.0846ZM489.113 26.4869C488.478 25.542 488.141 24.3953 488.141 23.002H486.141C486.141 24.7336 486.565 26.2822 487.453 27.6029L489.113 26.4869ZM488.141 23.002C488.141 20.7329 489.077 18.8092 491.057 17.1829L489.787 15.6374C487.392 17.6048 486.141 20.0757 486.141 23.002H488.141ZM491.053 17.1856C493.048 15.5617 495.623 14.7148 498.859 14.7148V12.7148C495.259 12.7148 492.21 13.6649 489.79 15.6347L491.053 17.1856ZM498.859 14.7148C502.277 14.7148 504.943 15.5939 506.95 17.2663L508.23 15.7298C505.784 13.6913 502.629 12.7148 498.859 12.7148V14.7148ZM506.953 17.269C508.971 18.9362 509.959 21.0276 509.959 23.6172H511.959C511.959 20.4256 510.701 17.7708 508.227 15.7271L506.953 17.269ZM510.959 22.6172H505.51V24.6172H510.959V22.6172ZM506.51 23.6172C506.51 21.8011 505.715 20.2544 504.251 19.0159L502.96 20.5427C504.035 21.4526 504.51 22.4645 504.51 23.6172H506.51ZM504.257 19.0209C502.797 17.7661 500.972 17.168 498.859 17.168V19.168C500.575 19.168 501.914 19.644 502.954 20.5377L504.257 19.0209ZM498.859 17.168C496.753 17.168 494.966 17.6259 493.619 18.6654L494.842 20.2486C495.721 19.5694 497.021 19.168 498.859 19.168V17.168ZM493.619 18.6654C492.265 19.711 491.561 21.1245 491.561 22.8262H493.561C493.561 21.7544 493.969 20.9218 494.842 20.2486L493.619 18.6654ZM491.561 22.8262C491.561 24.4492 492.23 25.7652 493.573 26.6269L494.653 24.9435C493.926 24.477 493.561 23.8203 493.561 22.8262H491.561ZM493.573 26.6269C494.769 27.3939 496.787 28.058 499.49 28.6651L499.928 26.7138C497.24 26.11 495.528 25.5045 494.653 24.9435L493.573 26.6269ZM499.491 28.6655C502.161 29.2608 504.273 29.9614 505.854 30.7519L506.748 28.963C504.97 28.0738 502.687 27.329 499.927 26.7134L499.491 28.6655ZM505.854 30.7519C507.425 31.5376 508.512 32.4517 509.192 33.4621L510.851 32.3465C509.929 30.9741 508.536 29.857 506.748 28.963L505.854 30.7519ZM509.202 33.4778C509.884 34.4519 510.252 35.6774 510.252 37.2109H512.252C512.252 35.346 511.799 33.7005 510.841 32.3308L509.202 33.4778ZM510.252 37.2109C510.252 39.7286 509.267 41.7098 507.249 43.2404L508.458 44.8338C510.972 42.9269 512.252 40.3573 512.252 37.2109H510.252ZM507.254 43.2371C505.204 44.7745 502.492 45.5859 499.035 45.5859V47.5859C502.805 47.5859 505.972 46.6981 508.454 44.8371L507.254 43.2371ZM499.035 45.5859C496.615 45.5859 494.515 45.158 492.715 44.3298L491.879 46.1468C493.985 47.1154 496.378 47.5859 499.035 47.5859V45.5859ZM492.715 44.3298C490.907 43.4981 489.52 42.3579 488.518 40.9175L486.876 42.0591C488.102 43.8218 489.781 45.1816 491.879 46.1468L492.715 44.3298ZM488.526 40.929C487.539 39.4656 487.057 37.911 487.057 36.2441H485.057C485.057 38.3273 485.668 40.2688 486.868 42.0476L488.526 40.929ZM486.057 37.2441H491.477V35.2441H486.057V37.2441ZM490.478 36.2978C490.59 38.3815 491.437 40.0989 493.021 41.3621L494.268 39.7981C493.157 38.9128 492.558 37.7396 492.475 36.1905L490.478 36.2978ZM493.034 41.3719C494.621 42.5963 496.652 43.1621 499.035 43.1621V41.1621C496.965 41.1621 495.403 40.6733 494.255 39.7883L493.034 41.3719ZM499.035 43.1621C501.21 43.1621 503.065 42.7283 504.512 41.7637L503.402 40.0996C502.388 40.7756 500.962 41.1621 499.035 41.1621V43.1621ZM504.515 41.7617C506.013 40.755 506.832 39.3441 506.832 37.5918H504.832C504.832 38.6129 504.401 39.4286 503.399 40.1016L504.515 41.7617Z" fill="#1C768D"/>
</svg>
